<?xml version="1.0" encoding="UTF-8"?>
<svg xmlns="http://www.w3.org/2000/svg" xmlns:xlink="http://www.w3.org/1999/xlink" viewBox="0 0 48 48" width="48px" height="48px">
<defs>
<linearGradient id="linear0" gradientUnits="userSpaceOnUse" x1="13.79942" y1="9.30233" x2="123.52108" y2="119.024002" gradientTransform="matrix(0.27907,0,0,0.27907,0,0)">
<stop offset="0" style="stop-color:rgb(100%,100%,100%);stop-opacity:1;"/>
<stop offset="1" style="stop-color:rgb(80.000001%,80.000001%,80.000001%);stop-opacity:1;"/>
</linearGradient>
</defs>
<g id="surface253444687">
<path style=" stroke:none;fill-rule:nonzero;fill:url(#linear0);" d="M 33.242188 25 L 24.121094 13 L 25.304688 13 C 26.144531 13 26.933594 13.390625 27.441406 14.0625 L 34.5 23.347656 L 41.558594 14.0625 C 42.066406 13.390625 42.859375 13 43.699219 13 L 44.878906 13 L 35.757812 25 L 45.304688 37.558594 L 44.125 37.558594 C 43.285156 37.558594 42.492188 37.167969 41.984375 36.5 L 34.5 26.652344 L 27.015625 36.5 C 26.507812 37.167969 25.714844 37.558594 24.875 37.558594 L 23.695312 37.558594 Z M 4 26 L 4 26.78125 C 4 30.980469 6.777344 34.816406 10.867188 35.753906 C 15.308594 36.773438 19.359375 34.507812 21.097656 30.914062 C 21.367188 30.355469 21.929688 30 22.546875 30 L 23.574219 30 C 22.257812 34.65625 17.960938 38.058594 12.867188 38 C 6.777344 37.925781 2 32.695312 2 26.140625 L 2 23.285156 C 2 17.855469 5.8125 13.011719 11.171875 12.148438 C 18.054688 11.039062 24 16.324219 24 23 L 24 26 Z M 4 24 L 22 24 L 22 23 C 22 17.351562 16.796875 12.921875 10.925781 14.230469 C 6.804688 15.152344 4 19.003906 4 23.710938 Z M 4 24 "/>
</g>
</svg>
